<?xml version="1.0" standalone="no"?><!DOCTYPE svg PUBLIC "-//W3C//DTD SVG 1.1//EN" "http://www.w3.org/Graphics/SVG/1.1/DTD/svg11.dtd"><svg class="icon" height="512" viewBox="0 0 1024 1024" version="1.1" xmlns="http://www.w3.org/2000/svg"><path d="M672.03072 26.56256l-1.98656 238.87872h238.8992L672.03072 26.56256z" fill="#36AF47" /><path d="M614.58432 320.9216V10.38336H180.6336c-37.35552 0-67.60448 29.92128-67.60448 66.90816v869.45792c0 36.90496 30.28992 66.8672 67.64544 66.8672h676.70016c37.39648 0 67.72736-29.96224 67.72736-66.92864V320.9216H614.58432z" fill="#36AF47" /><path d="M180.0192 803.67616l64.86016-99.04128-58.7776-90.76736h44.81024l38.05184 60.96896 37.29408-60.96896h44.40064l-59.02336 92.16 64.86016 97.64864H310.272l-42.0864-65.6384-42.20928 65.6384H180.0192zM377.20064 803.67616v-188.23168h38.31808v156.24192h95.27296v31.98976h-133.59104zM528.40448 741.92896l37.2736-3.64544c2.23232 12.51328 6.79936 21.72928 13.66016 27.60704 6.8608 5.8368 16.11776 8.8064 27.77088 8.8064 12.34944 0 21.64736-2.60096 27.89376-7.84384s9.37984-11.32544 9.37984-18.3296a17.26464 17.26464 0 0 0-3.93216-11.44832c-2.64192-3.15392-7.24992-5.91872-13.80352-8.23296-4.48512-1.55648-14.72512-4.32128-30.67904-8.27392-20.54144-5.07904-34.95936-11.3664-43.23328-18.75968-11.65312-10.4448-17.48992-23.20384-17.48992-38.1952 0-9.68704 2.74432-18.71872 8.21248-27.11552 5.48864-8.43776 13.37344-14.848 23.69536-19.23072 10.30144-4.4032 22.75328-6.59456 37.33504-6.59456 23.81824 0 41.75872 5.24288 53.80096 15.68768s18.35008 24.35072 18.96448 41.79968l-38.31808 1.67936c-1.6384-9.76896-5.16096-16.75264-10.5472-21.03296-5.40672-4.28032-13.49632-6.38976-24.28928-6.38976-11.14112 0-19.8656 2.27328-26.15296 6.84032a13.90592 13.90592 0 0 0-6.08256 11.79648c0 4.48512 1.90464 8.31488 5.69344 11.50976 4.8128 4.07552 16.56832 8.27392 35.2256 12.67712 18.6368 4.4032 32.41984 8.97024 41.3696 13.68064 8.92928 4.68992 15.91296 11.12064 20.95104 19.27168 5.05856 8.15104 7.5776 18.24768 7.5776 30.24896 0 10.87488-3.01056 21.03296-9.05216 30.55616a54.3744 54.3744 0 0 1-25.64096 21.15584c-11.03872 4.608-24.80128 6.92224-41.30816 6.92224-23.98208 0-42.41408-5.55008-55.27552-16.62976s-20.50048-27.27936-22.99904-48.51712zM695.68512 803.67616l64.86016-99.04128-58.7776-90.76736h44.81024l38.05184 60.96896 37.2736-60.96896h44.42112l-59.04384 92.16 64.86016 97.64864h-46.22336l-42.0864-65.6384-42.20928 65.6384h-45.93664z" fill="#FFFFFF" /></svg>